<!-- <?xml version="1.0" standalone="no"?>
<!DOCTYPE svg PUBLIC "-//W3C//DTD SVG 20010904//EN"
 "http://www.w3.org/TR/2001/REC-SVG-20010904/DTD/svg10.dtd"> -->
<svg version="1.0" xmlns="http://www.w3.org/2000/svg"
 width="512.000000pt" height="512.000000pt" viewBox="0 0 512.000000 512.000000"
 preserveAspectRatio="xMidYMid meet">

<g transform="translate(0.000000,512.000000) scale(0.100000,-0.100000)"
fill="#000000" stroke="none">
<path d="M2662 4639 c-252 -42 -488 -220 -606 -456 -103 -207 -113 -470 -27
-683 47 -114 90 -179 186 -276 133 -135 272 -208 456 -240 356 -62 724 125
885 451 65 132 86 224 87 375 1 146 -15 222 -74 348 -162 350 -528 544 -907
481z"/>
<path d="M418 3269 c-10 -6 -18 -22 -18 -37 0 -15 106 -346 236 -736 148 -442
233 -711 226 -714 -49 -16 -121 -63 -139 -90 -43 -65 -39 -170 12 -347 29 -99
43 -129 81 -174 57 -68 121 -76 277 -37 106 27 154 54 211 116 63 69 81 121
81 225 0 109 -23 163 -100 241 -65 66 -137 94 -240 94 l-73 0 -237 718 c-256
778 -256 777 -317 741z"/>
<path d="M2640 2754 c-171 -21 -221 -28 -330 -50 -201 -41 -430 -122 -635
-223 -178 -89 -349 -194 -413 -255 -73 -69 -138 -211 -130 -286 3 -29 8 -33
61 -51 116 -39 207 -119 260 -229 60 -125 46 -303 -33 -422 -30 -46 -92 -107
-140 -140 -24 -16 12 -17 648 -17 l672 -1 0 605 0 605 838 2 837 3 -90 58
c-277 179 -679 328 -1030 382 -96 15 -442 28 -515 19z"/>
<path d="M2760 1410 l0 -720 364 0 c358 0 365 0 371 -20 4 -12 16 -30 28 -40
19 -18 36 -20 192 -20 156 0 173 2 192 20 12 10 24 28 28 40 6 20 13 20 371
20 l364 0 0 720 0 720 -955 0 -955 0 0 -720z m900 0 l0 -550 -367 2 -368 3 -3
548 -2 547 370 0 370 0 0 -550z m840 0 l0 -550 -365 0 -365 0 0 550 0 550 365
0 365 0 0 -550z"/>
<path d="M3940 1640 l0 -40 195 0 195 0 0 40 0 40 -195 0 -195 0 0 -40z"/>
<path d="M3940 1470 l0 -40 195 0 195 0 0 40 0 40 -195 0 -195 0 0 -40z"/>
<path d="M3940 1300 l0 -40 135 0 135 0 0 40 0 40 -135 0 -135 0 0 -40z"/>
</g>
</svg>
